<svg xmlns="http://www.w3.org/2000/svg" xmlns:xlink="http://www.w3.org/1999/xlink" width="1080" zoomAndPan="magnify" viewBox="0 0 810 809.999993" height="1080" preserveAspectRatio="xMidYMid meet" version="1.0"><defs><clipPath id="3979bb4a6b"><path d="M 321 84 L 648 84 L 648 809.699219 L 321 809.699219 Z M 321 84 " clip-rule="nonzero"/></clipPath><clipPath id="d7f10fd233"><path d="M 178.898438 28.949219 L 521 28.949219 L 521 167 L 178.898438 167 Z M 178.898438 28.949219 " clip-rule="nonzero"/></clipPath></defs><path fill="#e6e6e6" d="M 584.683594 243.835938 L 627.773438 237.820312 C 637.210938 236.5625 644.503906 230.917969 643.058594 213.964844 L 641.800781 200.253906 C 641.617188 198.644531 640.988281 197.292969 639.914062 196.3125 C 638.746094 195.332031 637.488281 194.886719 636.046875 195.144531 L 567.785156 206.710938 C 565.714844 207.0625 564.195312 209.230469 564.453125 211.636719 L 565.804688 227.050781 C 566.695312 237.820312 575.152344 245.183594 584.683594 243.835938 Z M 584.683594 243.835938 " fill-opacity="1" fill-rule="evenodd"/><g clip-path="url(#3979bb4a6b)"><path fill="#999999" d="M 647.464844 200.625 L 646.742188 194.441406 C 646.558594 192.742188 645.835938 191.390625 644.503906 190.410156 C 643.246094 189.429688 641.707031 189.058594 640.097656 189.242188 L 561.308594 202.066406 C 558.976562 202.417969 557.253906 204.585938 557.347656 206.988281 L 557.808594 210.894531 C 454.699219 229.585938 379.703125 276.257812 334.46875 349.835938 L 334.46875 84.261719 L 322.421875 84.261719 L 322.421875 371.484375 C 322.21875 371.894531 321.996094 372.28125 321.808594 372.6875 L 322.421875 373.003906 L 322.421875 809.699219 L 334.46875 809.699219 L 334.46875 378.980469 L 335.449219 379.460938 C 376.632812 296.6875 453.035156 244.890625 562.53125 225.515625 L 562.382812 224.664062 C 566.492188 229.808594 573.117188 232.640625 580.1875 231.546875 L 629.828125 223.476562 C 640.542969 221.777344 648.277344 211.5625 647.464844 200.625 Z M 647.464844 200.625 " fill-opacity="1" fill-rule="evenodd"/></g><path fill="#367fb2" d="M 286.179688 29.835938 L 495.011719 29.835938 L 389.976562 140.648438 L 181.148438 140.648438 Z M 286.179688 29.835938 " fill-opacity="1" fill-rule="evenodd"/><g clip-path="url(#d7f10fd233)"><path stroke-linecap="butt" transform="matrix(1.850835, 0, 0, 1.850557, 179.055258, 28.947935)" fill="none" stroke-linejoin="miter" d="M 57.878958 0.479857 L 170.710181 0.479857 L 113.96005 60.360479 L 1.130937 60.360479 Z M 57.878958 0.479857 " stroke="#000000" stroke-width="0.969" stroke-opacity="1" stroke-miterlimit="10"/></g><path stroke-linecap="butt" transform="matrix(1.850835, 0, 0, 1.850557, 179.055258, 28.947935)" fill-opacity="1" fill="#858181" fill-rule="evenodd" stroke-linejoin="miter" d="M 73.140225 239.799702 L 89.220378 239.799702 C 92.479042 239.799702 95.150977 242.459374 95.150977 245.710085 L 95.150977 279.38027 C 95.150977 282.620426 92.479042 285.290652 89.220378 285.290652 L 73.140225 285.290652 C 69.87945 285.290652 67.209626 282.620426 67.209626 279.38027 L 67.209626 245.710085 C 67.209626 242.459374 69.87945 239.799702 73.140225 239.799702 Z M 73.140225 239.799702 " stroke="#999999" stroke-width="0.969" stroke-opacity="1" stroke-miterlimit="10"/><path fill="#000000" d="M 468.765625 58.445312 L 468.765625 56.652344 L 416.089844 56.652344 L 440.894531 30.464844 L 439.597656 29.226562 L 413.628906 56.652344 L 366.433594 56.652344 L 391.253906 30.464844 L 389.957031 29.226562 L 363.953125 56.652344 L 311.484375 56.652344 L 336.300781 30.464844 L 335.007812 29.226562 L 309.003906 56.652344 L 259.917969 56.652344 L 259.917969 58.445312 L 307.300781 58.445312 L 282.738281 84.355469 L 233.65625 84.355469 L 233.65625 86.148438 L 281.035156 86.148438 L 256.476562 112.054688 L 207.410156 112.054688 L 207.410156 113.851562 L 254.792969 113.851562 L 229.953125 140.035156 L 231.25 141.277344 L 257.253906 113.851562 L 309.722656 113.851562 L 284.90625 140.035156 L 286.199219 141.277344 L 312.203125 113.851562 L 359.457031 113.851562 L 334.65625 140.035156 L 335.949219 141.277344 L 361.917969 113.851562 L 416.238281 113.851562 L 416.238281 112.054688 L 363.621094 112.054688 L 388.164062 86.148438 L 442.503906 86.148438 L 442.503906 84.355469 L 389.867188 84.355469 L 414.40625 58.445312 Z M 309.78125 58.445312 L 362.25 58.445312 L 337.691406 84.355469 L 285.21875 84.355469 Z M 258.957031 112.054688 L 283.515625 86.148438 L 335.988281 86.148438 L 311.425781 112.054688 Z M 361.140625 112.054688 L 313.90625 112.054688 L 338.46875 86.148438 L 385.683594 86.148438 Z M 387.386719 84.355469 L 340.171875 84.355469 L 364.730469 58.445312 L 411.925781 58.445312 Z M 387.386719 84.355469 " fill-opacity="1" fill-rule="nonzero"/></svg>